<?xml version="1.0" encoding="UTF-8"?>
<svg id="Layer_1" xmlns="http://www.w3.org/2000/svg" version="1.1" viewBox="0 0 78.99 105.24">
  <!-- Generator: Adobe Illustrator 29.0.1, SVG Export Plug-In . SVG Version: 2.1.0 Build 192)  -->
  <defs>
    <style>
      .st0 {
        fill: #39469c;
      }
    </style>
  </defs>
  <path class="st0" d="M78.77,15.02c-1.19-2.27-2.36-4.57-3.74-6.73-1.61-2.54-3.45-4.93-5.22-7.35-.65-.89-2.09-1.39-2.94-.38-3.83,4.51-7.67,9.03-11.5,13.54l2.65,2.65c3.69-4.63,7.61-9.09,11.5-13.54l-3.2-1.33c-.86,14.22-1.39,29.15-8.25,42-2.96,5.55-7.05,10.61-12.42,13.98s-11.47,5.06-17.63,4.33c-5.07-.6-12.27-3.54-12.34-9.6-.07-6.49,6.59-9.88,12.34-9.12s10.75,4.87,11.89,10.51c1.35,6.65-2.75,13.41-6.31,18.67-8.29,12.21-20.12,21.6-32.7,29.07-2.07,1.23-.19,4.47,1.89,3.24,12.58-7.47,24.28-16.79,32.88-28.74,4.24-5.9,8.63-13.1,8.2-20.65-.4-7.08-5.45-12.84-12.07-15.05s-14.99-.32-18.41,6.27c-1.55,2.99-1.96,6.52-.67,9.67s3.82,5.45,6.73,6.98c6.21,3.26,13.77,3.32,20.36,1.23,6.84-2.17,12.7-6.52,17.1-12.15,9.81-12.57,11.79-28.78,12.77-44.19.14-2.15.26-4.3.39-6.45.1-1.58-2.15-2.53-3.2-1.33-3.89,4.46-7.81,8.92-11.5,13.54-.64.8-.76,1.87,0,2.65.66.68,2,.77,2.65,0,3.83-4.51,7.67-9.03,11.5-13.54l-2.94-.38c1.78,2.42,3.61,4.82,5.22,7.35,1.38,2.17,2.54,4.46,3.74,6.73,1.12,2.14,4.36.24,3.24-1.89h0Z"/>
</svg>