<?xml version="1.0" encoding="UTF-8"?>
<svg id="Layer_1" xmlns="http://www.w3.org/2000/svg" version="1.1" viewBox="0 0 38.74 50.82">
  <!-- Generator: Adobe Illustrator 29.0.1, SVG Export Plug-In . SVG Version: 2.1.0 Build 192)  -->
  <defs>
    <style>
      .st0 {
        fill: none;
        stroke: #39469c;
        stroke-miterlimit: 10;
      }
    </style>
  </defs>
  <path class="st0" d="M.12,50.34c10.69-2.73,19.61-11.52,22.5-22.17.51-1.86.84-3.82.51-5.72s-1.41-3.75-3.14-4.61c-2.61-1.29-5.91.06-7.77,2.31-.51.61-.96,1.33-1.03,2.12-.11,1.15.62,2.26,1.59,2.87s2.16.8,3.32.82c5.38.09,10.44-3.22,13.41-7.7s4.08-9.98,4.19-15.36c-.66,1.62-1.71,3.08-3.03,4.22-5.55,4.14,2.28-4.54,3.33-5.98.99,3.63,3.2,4.98,4.39,6.16"/>
</svg>