<?xml version="1.0" encoding="UTF-8"?>
<svg id="Layer_1" xmlns="http://www.w3.org/2000/svg" version="1.1" viewBox="0 0 400 400">
  <!-- Generator: Adobe Illustrator 29.0.1, SVG Export Plug-In . SVG Version: 2.1.0 Build 192)  -->
  <defs>
    <style>
      .st0 {
        stroke: #21409a;
      }

      .st0, .st1 {
        fill: none;
        stroke-miterlimit: 10;
        stroke-width: 4px;
      }

      .st1 {
        stroke: #231f20;
      }
    </style>
  </defs>
  <path class="st0" d="M38.64,150.01c9.07-17.23,14.05-28.54,14.78-42.05.08-.64.14-.61.19.1.11.97.42,12.86.49,14.1.2,8.83.17,14.28-.14,23.07.12-1.36.04-11.04.34-12.85.39-5.72,4.01-25.12,10.42-23.66,2.46.56,2.96,4.68,3.35,7.13.96,6.99,1,14.52,4.75,20.66,3.7,6.66,12.47,8.29,18.47,3.72,4.99-3.49,7.9-9.71,8.92-15.97,1.14-4.58-.85-14.4-7.28-10.66-6.82,6.01-4.62,18.29,1.12,24.22,10.75,10.47,21.57,4.87,21.61-9.69.17-.67-.71-15.99-1.32-13.94-.5,5.06,2.1,24.83,7.72,27.52,5.03,2.6,9.04-14.68,9.95-18.28.42-1.53,3.34,11.32,3.77,12.93.88,3.22,2.1,5.84,5.78,6.02,9.88.48,10.95-21.9,10.36-28.96"/>
  <path class="st1" d="M170.71,166.3"/>
  <path class="st0" d="M164.75,94.63c-1.21,13.02-3.36,26.14,0,38.77"/>
  <path class="st0" d="M164.7,143.05c.22.19.5.31.79.39,1.17.33,2.48.05,3.42-.72,1.99-1.65,1.74-6.2-1.53-5.98-2.17.15-4.54,4.73-2.67,6.32Z"/>
</svg>